<svg display="none" width="0" height="0" version="1.1" xmlns="http://www.w3.org/2000/svg" xmlns:xlink="http://www.w3.org/1999/xlink">
<defs>
<symbol id="icon-arrow-circle-o-down" viewBox="0 0 1024 1024">
	<title>arrow-circle-o-down</title>
	<path class="path1" d="M640 530.286q0 6.857-5.714 13.714l-182.286 182.286q-6.286 5.143-13.143 5.143t-13.143-5.143l-182.857-182.857q-8.571-9.143-4-20 4.571-11.429 17.143-11.429h109.714v-201.143q0-8 5.143-13.143t13.143-5.143h109.714q8 0 13.143 5.143t5.143 13.143v201.143h109.714q8 0 13.143 5.143t5.143 13.143zM438.857 201.143q-84.571 0-156 41.714t-113.143 113.143-41.714 156 41.714 156 113.143 113.143 156 41.714 156-41.714 113.143-113.143 41.714-156-41.714-156-113.143-113.143-156-41.714zM877.714 512q0 119.429-58.857 220.286t-159.714 159.714-220.286 58.857-220.286-58.857-159.714-159.714-58.857-220.286 58.857-220.286 159.714-159.714 220.286-58.857 220.286 58.857 159.714 159.714 58.857 220.286z"></path>
</symbol>
<symbol id="icon-times-circle-o" viewBox="0 0 1024 1024">
	<title>times-circle-o</title>
	<path class="path1" d="M626.857 616.571l-83.429 83.429q-5.714 5.714-13.143 5.714t-13.143-5.714l-78.286-78.286-78.286 78.286q-5.714 5.714-13.143 5.714t-13.143-5.714l-83.429-83.429q-5.714-5.714-5.714-13.143t5.714-13.143l78.286-78.286-78.286-78.286q-5.714-5.714-5.714-13.143t5.714-13.143l83.429-83.429q5.714-5.714 13.143-5.714t13.143 5.714l78.286 78.286 78.286-78.286q5.714-5.714 13.143-5.714t13.143 5.714l83.429 83.429q5.714 5.714 5.714 13.143t-5.714 13.143l-78.286 78.286 78.286 78.286q5.714 5.714 5.714 13.143t-5.714 13.143zM749.714 512q0-84.571-41.714-156t-113.143-113.143-156-41.714-156 41.714-113.143 113.143-41.714 156 41.714 156 113.143 113.143 156 41.714 156-41.714 113.143-113.143 41.714-156zM877.714 512q0 119.429-58.857 220.286t-159.714 159.714-220.286 58.857-220.286-58.857-159.714-159.714-58.857-220.286 58.857-220.286 159.714-159.714 220.286-58.857 220.286 58.857 159.714 159.714 58.857 220.286z"></path>
</symbol>
</defs>
</svg>
