<?xml version="1.0" encoding="utf-8"?>
<!-- Generator: Adobe Illustrator 18.1.1, SVG Export Plug-In . SVG Version: 6.00 Build 0)  -->
<svg version="1.1" id="Layer_1" xmlns="http://www.w3.org/2000/svg" xmlns:xlink="http://www.w3.org/1999/xlink" x="0px" y="0px"
	 width="121.5px" height="114.9px" viewBox="0 0 121.5 114.9" enable-background="new 0 0 121.5 114.9" xml:space="preserve">
<path fill="#E13526" d="M21.9,114.9h77.6c4.4,0,8-3.6,8-8V46.7c0-4.4-3.6-8-8-8H21.9c-4.4,0-8,3.6-8,8V107
	C14,111.4,17.5,114.9,21.9,114.9z M67.9,66.8c0,3.8,3.1,6.9,6.9,6.9c3.8,0,6.9-3.1,6.9-6.9h2c0,4.9-4,8.9-8.9,8.9
	c-4.9,0-8.9-4-8.9-8.9H67.9z M70.6,91.6c2.4-2,3.9-4.8,3.9-7.8h0h2c0,7.4-7.1,13.1-15.5,13.1c-8.4,0-15.4-5.7-15.5-13.1h2
	c0,3,1.5,5.8,3.9,7.8c2.4,2,5.8,3.3,9.6,3.3C64.8,94.9,68.2,93.7,70.6,91.6z M38.5,66.8c0,3.8,3.1,6.9,6.9,6.9
	c3.8,0,6.9-3.1,6.9-6.9h0h2c0,4.9-4,8.9-8.9,8.9c-4.9,0-8.9-4-8.9-8.9H38.5z M112.4,91.9V61.7c0-2.5,2-4.5,4.5-4.5
	c2.5,0,4.5,2,4.5,4.5v30.2c0,2.5-2,4.5-4.5,4.5C114.4,96.4,112.4,94.4,112.4,91.9z M0,91.9V61.7c0-2.5,2-4.5,4.5-4.5
	c2.5,0,4.5,2,4.5,4.5v30.2c0,2.5-2,4.5-4.5,4.5C2,96.4,0,94.4,0,91.9z M52.4,8.3c0-4.6,3.7-8.3,8.3-8.3C65.3,0,69,3.7,69,8.3
	c0,3.3-1.9,6.1-4.6,7.4l2.4,19.1H54.7l2.4-19.1C54.4,14.4,52.4,11.6,52.4,8.3z"/>
<g>
</g>
<g>
</g>
<g>
</g>
<g>
</g>
<g>
</g>
<g>
</g>
</svg>
